<?xml version="1.0" encoding="utf-8"?>
<!-- Uploaded to: SVG Repo, www.svgrepo.com, Generator: SVG Repo Mixer Tools -->
<svg width="800px" height="800px" viewBox="-20.14 0 418.573 418.573" xmlns="http://www.w3.org/2000/svg"><defs><style>.a{fill:#ffffff;}.b{fill:#5394cf;}.c{fill:#211715;}.d{fill:#ffe176;}.e{fill:#6dbf6b;}.f{fill:#7a7473;}</style></defs><path class="a" d="M117.937,171.775a165.693,165.693,0,0,1,27.261,5.719c1.324,1.933,6.768,5.076,10.514,5.35a64.611,64.611,0,0,0,18.578-1.8c4.12-.94,8.361-1.63,12.119-3.564,3.121-1.606,6.085-3.73,7.584-6.754,1.611-3.1.989-7.057.334-9.817-1.709-7.206-4.152-14.776-6.246-18.794a10.937,10.937,0,0,0-3.629-4.376,10.6,10.6,0,0,0-5.432-1.51c-11.332-.079-17.587.741-25.994,3.732a11.243,11.243,0,0,0-6.118,5.393c-1.272,2.486-1.888,10.616-1.888,14.32l-1.4,6.244c-5.475-.422-10.1-.844-15.58-1.266l-4.923-.379a3.085,3.085,0,0,0-1.678-2.543,6.882,6.882,0,0,0-4.171-.325,30.218,30.218,0,0,0-13.87,5.987c-1.466,1.142-2.957,2.787-2.579,4.607a3.613,3.613,0,0,0,2.472,2.51,8.743,8.743,0,0,0,3.654.225,32.513,32.513,0,0,0,10.759-2.991"/><path class="a" d="M152.484,280.469a.161.161,0,0,0,.314,0c.616-2.6,1.894-6.879,3.848-8.725a15.717,15.717,0,0,1,7.884-3.543.163.163,0,0,0-.009-.322c-3.479-.5-6.362-1.546-8.546-4.273a14.46,14.46,0,0,1-2.983-8.1.161.161,0,0,0-.317-.025c-.629,2.714-2.13,6.629-3.452,8.308-1.984,2.52-4.6,3.292-8.713,4.076a.163.163,0,0,0,.013.324,13.706,13.706,0,0,1,8.521,3.872C151.066,273.9,152.046,278.688,152.484,280.469Z"/><path class="a" d="M10.408,363.15a.112.112,0,0,0,.219,0c.429-1.808,1.318-4.788,2.678-6.072a10.941,10.941,0,0,1,5.488-2.467.113.113,0,0,0-.006-.223c-2.422-.351-4.428-1.077-5.948-2.975a10.062,10.062,0,0,1-2.077-5.641.112.112,0,0,0-.221-.018,18.171,18.171,0,0,1-2.4,5.784c-1.381,1.754-3.2,2.291-6.065,2.837a.113.113,0,0,0,.009.225,9.549,9.549,0,0,1,5.931,2.695C9.422,358.576,10.1,361.911,10.408,363.15Z"/><path class="a" d="M25.374,227.132a.162.162,0,0,0,.315,0c.615-2.6,1.893-6.877,3.846-8.721a15.7,15.7,0,0,1,7.88-3.542.162.162,0,0,0-.009-.321c-3.477-.5-6.358-1.546-8.542-4.271a14.449,14.449,0,0,1-2.981-8.1.161.161,0,0,0-.318-.025c-.628,2.712-2.128,6.626-3.449,8.3-1.984,2.519-4.6,3.291-8.71,4.075a.163.163,0,0,0,.013.323,13.705,13.705,0,0,1,8.518,3.871C23.958,220.563,24.937,225.352,25.374,227.132Z"/><path class="a" d="M124.838,311.938c3.989.514,11.03,2.765,13.449,4.5,2.572,1.849,3.556,4.191,4.046,7.1q-.021.615-.045,1.23A269.592,269.592,0,0,1,129.277,396.6c-2.2,6.791-5.379,14.242-13.7,17.69-4.274,1.77-9.25,2.181-14.225,2.26-1.436.022-2.871.017-4.29.009-4.3-.024-21.487-.024-25.784,0-6.336.036-13.008.012-18.515-2.269-8.326-3.448-11.507-10.9-13.7-17.69q-1.539-4.758-2.9-9.544A268.857,268.857,0,0,1,26,323.6c.486-2.935,1.467-5.3,4.055-7.156a23.736,23.736,0,0,1,8.253-3.292,32.678,32.678,0,0,1,4.758-.956,291.687,291.687,0,0,1,40.986-3.227A311.188,311.188,0,0,1,124.838,311.938Z"/><path class="a" d="M297.182,379.244c1.826-1.881,5.446-4.023,8.415-3.7a17.284,17.284,0,0,1,7.8,3.082,11.634,11.634,0,0,0,4,2.126c3.7.819,6.353-2.28,9.634-4.178a2.635,2.635,0,0,1,3.73,1.612,18.616,18.616,0,0,1,1.1,5.747c.24,4.319-.131,9.076-3.095,12.226-2.879,3.059-6.186,3.5-9.938,5.391-2.886,1.451-6.556,3.893-9.365,5.488-7.187,4.084-16.932,3.364-23.376,2.475a13.312,13.312,0,0,1-7.148-3.519c-1.971-1.837-3.211-5.062-2.435-7.642.614-2.044,2.3-3.554,3.916-4.95,3.94-3.41,12.812-10.746,16.752-14.156"/><path class="a" d="M244.735,391.75c-1.178,2.695-.99,5.829-.276,7.073,1.286,2.243,2.08,3.42,4.527,4.577,5.679,2.685,12.364,1.57,18.473-.151,2.167-.61,5.678-1.5,7.749-2.294l1.107-.261a6.031,6.031,0,0,1,.2-2.344c.614-2.044,2.3-3.554,3.916-4.95,3.2-2.773,9.667-8.141,14.09-11.883.1-1.22.179-2.194.179-2.194a20.9,20.9,0,0,0-1.214-6.639,1.8,1.8,0,0,0-2.4-1.139c-2.947,1.332-5.21,3.8-8.44,3.088a9.525,9.525,0,0,1-3.277-1.741,14.144,14.144,0,0,0-6.387-2.522c-2.43-.263-5.452,1.842-6.888,3.03-6.77,5.073-13.16,10.024-19.463,15.666A7.721,7.721,0,0,0,244.735,391.75Z"/><path class="a" d="M327.921,374.118c-.091-1.731-.336-3.757-.27-4.941l-.019-.619c-.331.01-.663.017-.984.034a172.659,172.659,0,0,1-23.17-.282c-.048.352-.085.6-.085.6-.129.881.112,4.785.037,6.047l-.044.746a6.745,6.745,0,0,1,2.211-.159,17.284,17.284,0,0,1,7.8,3.082,11.634,11.634,0,0,0,4,2.126c3.7.819,6.353-2.28,9.634-4.178a2.326,2.326,0,0,1,.861-.3A12.4,12.4,0,0,0,327.921,374.118Z"/><path class="a" d="M272.985,366.179a83.165,83.165,0,0,0,17.6.2c0,.49,0,.982,0,.982,0,.883.3,3.037.353,3.889l.023.355c-2.883,1.345-5.126,3.73-8.306,3.026a9.525,9.525,0,0,1-3.277-1.741,14.144,14.144,0,0,0-6.387-2.522Z"/><path class="a" d="M359.074,250.161q-2.353-1.709-4.573-3.594c-.741,3.183-2.93,4.527-6.122,4.042-2.09-.378-4.148-2.884-4.494-4.982-.56-3.4-1.33-5.381-1.563-6.838-.25-1.572-1.118-6.852-1.518-8.392,0,0-.626-4.927-1.192-9.37a31.9,31.9,0,0,0,13.046-3.931c1.447,2.952,1.281,4,3.269,7.2a149.661,149.661,0,0,0,12.77,15.571c3.56,3.962,7.511,8.343,7.586,12.439a3.9,3.9,0,0,1-1.106,2.856,4.225,4.225,0,0,1-2.528,1.014c-3.2.334-6.266-1.239-9-2.935Q361.308,251.784,359.074,250.161Z"/><path class="a" d="M262.414,93.452a8.514,8.514,0,0,1-.113-1.624c.669.232,1.383.453,2.139.654a29.321,29.321,0,0,0,16.316-.326,31.733,31.733,0,0,0,12.262-7.416,19.542,19.542,0,0,0,5.729,8.478,37.178,37.178,0,0,1-10.427,7.891,24.034,24.034,0,0,1-15.191,1.681C268.211,101.71,263.229,98.308,262.414,93.452Z"/><path class="a" d="M234.764,116.088c-2.117,6.328-2.095,13.537-3,20.283a134.413,134.413,0,0,1-3.692,16.733,1.6,1.6,0,0,1-2.193,1.581q-8.924-1.63-17.857-3.28a155.2,155.2,0,0,1-4.981,23.458c9,3.208,18.461,4.844,27.873,6.471a17.329,17.329,0,0,0,5.52.356,8.863,8.863,0,0,0,6.132-4.094c-.782,15.468-1.507,31.573-1.265,32.07a4.607,4.607,0,0,0,1.775,1.7c11.554,7.476,25.723,10.119,39.479,9.724,13.192-.38,29.35-2.873,40.622-8.1l.981,7.223c3.03.207,8.835.62,8.835.62a31.7,31.7,0,0,0,22.461-5.51l1.521-1.081-2.89-7.8c-3.718-10.741-10.187-34.211-12.806-44.614-3.1-12.314-4.384-23.23-8.675-34.7-2.213-5.915-6.741-14.032-11-18.241-7.241-7.165-14.343-14.038-21.6-16.974-3.474,3.628-7.166,7.075-11.691,9.19a24.034,24.034,0,0,1-15.191,1.681c-4.394-.965-8.84-3.784-10.314-7.84l-7.1,3.039c-6.707,2.87-13.735,6.05-17.93,12.008A23.371,23.371,0,0,0,234.764,116.088Z"/><path class="b" d="M265.214,362.906c-2.577-6.53-5.062-18-6.556-26.851-5.342-35.175-11.1-86.471-12.151-121.2l-.044-1.475c10.876,5.94,23.655,8.068,36.1,7.711,13.519-.389,30.153-3,41.452-8.486.115,4.144.231,8.2.231,8.2,1.407,29.521,7.584,117.21,7.271,145.349a3.649,3.649,0,0,1-1.452,2,9.409,9.409,0,0,1-3.413.435c-10.193.513-24.679.31-28.335-1.315l-5.415-1.489c-3.152,1.753-25.182,1.083-27.161-1.629Q265.475,363.568,265.214,362.906Z"/><path class="c" d="M306.183,97.733a100.29,100.29,0,0,1,11.013,9.623,50.917,50.917,0,0,1,8,9.459c4.691,7.467,7.423,15.674,9.439,24.215,1.936,8.2,3.447,16.483,5.569,24.641q2.6,9.992,5.439,19.917c2.037,7.166,4.088,14.347,6.519,21.391.835,2.419,4.7,1.38,3.857-1.063-4.491-13.012-8.041-26.4-11.54-39.707-2.134-8.118-3.735-16.336-5.588-24.518-1.987-8.772-4.62-17.348-9.183-25.15a52.636,52.636,0,0,0-8.8-11.153A112.864,112.864,0,0,0,308.2,94.28a2.014,2.014,0,0,0-2.736.717,2.044,2.044,0,0,0,.717,2.736Z"/><path class="c" d="M244.507,214.853c.4,12.989,1.31,25.961,2.421,38.906q1.842,21.482,4.432,42.89c1.571,13.166,3.308,26.315,5.292,39.426a174.175,174.175,0,0,0,4.364,20.359,65.205,65.205,0,0,0,2.779,8.237c.646,1.513,2.175,2.115,3.668,2.54a53.463,53.463,0,0,0,12.654,1.487,49.653,49.653,0,0,0,12.039-.568,6.88,6.88,0,0,0,1.751-.615c2.278-1.2.259-4.655-2.019-3.454-.273.144-.01,0,.146-.051-.1.032-.2.079-.311.1-.282.067-.56.146-.845.2-.154.03-.308.056-.463.081-.076.013-.539.078-.329.051,0,0-.774.082-1.074.108-2.006.174-4.025.212-6.037.2a70.852,70.852,0,0,1-12.6-.977,19.231,19.231,0,0,1-2.246-.544c-.145-.047-.288-.1-.433-.147-.379-.125.048.033-.025,0a3.186,3.186,0,0,0-.319-.162c-.38-.141-.02-.175.025.059-.008-.04-.2-.132-.182-.177.027-.085.137.33.037-.2a13.887,13.887,0,0,0-.695-1.85c-.48-1.361-.908-2.739-1.31-4.124a185.912,185.912,0,0,1-4.387-19.615c-2.2-12.549-3.659-25.276-5.19-37.92q-2.5-20.691-4.386-41.451c-1.145-12.816-2.1-25.656-2.61-38.515q-.085-2.139-.151-4.28c-.079-2.568-4.079-2.579-4,0Z"/><path class="c" d="M281.583,245.147l-4.467-1.341a2.058,2.058,0,0,0-1.541.2,2,2,0,0,0,.478,3.655L280.52,249a2,2,0,0,0,1.063-3.857Z"/><path class="c" d="M291.865,87.251a21.321,21.321,0,0,0,5.464,7.379,2,2,0,0,0,2.828-2.829,20.647,20.647,0,0,1-1.548-1.5q-.357-.384-.694-.787c-.112-.134-.221-.271-.33-.407-.258-.32.207.278.062.082-.057-.078-.116-.155-.174-.233a19.634,19.634,0,0,1-2.154-3.726,2,2,0,0,0-1.195-.919,2.043,2.043,0,0,0-1.541.2,2.017,2.017,0,0,0-.919,1.195,2.322,2.322,0,0,0,.2,1.541Z"/><path class="c" d="M323.59,210.585a77.538,77.538,0,0,1-20.239,6.289,129.937,129.937,0,0,1-21.857,2.239,76.208,76.208,0,0,1-22.874-2.886,56.641,56.641,0,0,1-10.5-4.229c-1.6-.847-3.071-1.9-4.633-2.788-.3-.169-.152-.29-.257-.091.089-.169-.04.486.057.449.008,0-.017-.213-.016-.236.214-5.476.314-10.96.564-16.439q.606-13.32,1.33-26.634c.3-5.589.644-11.175.975-16.761.026-.449.063-.33-.029.12.51-2.513-3.345-3.588-3.857-1.063a34.749,34.749,0,0,0-.365,4.771q-.309,5.114-.579,10.228-.742,13.677-1.384,27.36c-.28,6.02-.839,12.141-.662,18.172.05,1.728,1.107,2.835,2.511,3.809a51.929,51.929,0,0,0,10.573,5.4,73.392,73.392,0,0,0,23.387,4.73,122.05,122.05,0,0,0,23.1-1.371,97.056,97.056,0,0,0,21.983-5.491c1.625-.645,3.227-1.347,4.791-2.127,2.305-1.148.281-4.6-2.019-3.454Z"/><path class="c" d="M260.454,93.78c1.334,8.144,10.778,11.643,18.036,11.554a26.259,26.259,0,0,0,12.555-3.384,45.864,45.864,0,0,0,10.144-8.371c1.789-1.852-1.036-4.684-2.829-2.828-5.23,5.413-11.164,10.18-19.006,10.557-5.793.279-13.943-1.879-15.043-8.591a2.015,2.015,0,0,0-2.46-1.4,2.048,2.048,0,0,0-1.4,2.46Z"/><path class="c" d="M310.28,140.625c.724,8.282,2.327,16.514,3.811,24.685,1.884,10.375,3.9,20.725,5.832,31.091.921,4.946,1.828,9.895,2.636,14.861a2.015,2.015,0,0,0,2.46,1.4,2.048,2.048,0,0,0,1.4-2.46c-3.149-19.374-7.393-38.554-10.549-57.927-.652-4-1.24-7.675-1.587-11.647a2.053,2.053,0,0,0-2-2,2.015,2.015,0,0,0-2,2Z"/><path class="c" d="M333,222.836a33.624,33.624,0,0,0,23.47-5.783,2.055,2.055,0,0,0,.718-2.737,2.018,2.018,0,0,0-2.737-.717A30.3,30.3,0,0,1,333,218.836a2.01,2.01,0,0,0-2,2,2.052,2.052,0,0,0,2,2Z"/><path class="c" d="M351.291,218.87c.623,1.417,1.062,2.905,1.731,4.305a31.984,31.984,0,0,0,3.457,5.3c2.71,3.608,5.648,7.029,8.65,10.4,2.883,3.233,6.206,6.387,8.218,10.272.583,1.125,1.583,3.368.506,4.5-1.248,1.308-4.166.369-5.551-.187a34.209,34.209,0,0,1-6.3-3.676,73.234,73.234,0,0,1-6.085-4.628,2.025,2.025,0,0,0-3.343.883c-.485,1.909-1.886,3.183-3.975,2.572-2.836-.83-2.9-4.526-3.474-6.831-.479-1.926-.912-3.8-1.24-5.763-.343-2.05-.645-4.13-1.15-6.149-.625-2.5-4.484-1.438-3.857,1.064.611,2.442.959,4.965,1.365,7.448.176,1.076.407,2.121.689,3.176.461,1.724.66,3.547,1.18,5.245,1.05,3.426,4.212,6.124,7.88,5.9a6.941,6.941,0,0,0,6.44-5.595l-3.343.883c3.844,3.246,8.065,6.574,12.658,8.7,4.044,1.87,11.283,2.877,12.408-3.061.888-4.69-2.84-9.18-5.657-12.474-3.311-3.871-6.826-7.557-10.054-11.5a56.082,56.082,0,0,1-5.146-6.956,54.156,54.156,0,0,1-2.551-5.838,2.013,2.013,0,0,0-2.736-.717,2.049,2.049,0,0,0-.718,2.736Z"/><path class="c" d="M240.57,177.587v.009l.273-1.01c-1.624,2.516-4.276,3.407-7.168,3.149-3.337-.3-6.7-1.094-9.99-1.707a133.6,133.6,0,0,1-20.108-5.093l1.4,2.46a144.012,144.012,0,0,0,5.052-23.99l-2.532,1.928q5.07.933,10.139,1.866l4.342.8c1.6.293,3.631,1.022,5.256.7,2.973-.595,3.254-4.826,3.865-7.2.829-3.229,1.6-6.477,2.166-9.763,1.772-10.249.28-22.946,8.163-30.983,4.191-4.274,9.881-6.709,15.3-9.028a2.012,2.012,0,0,0,.717-2.736,2.052,2.052,0,0,0-2.736-.718c-4.851,2.078-9.677,4.268-13.82,7.594a25.243,25.243,0,0,0-8.373,12.739c-1.545,5.233-1.8,10.752-2.332,16.152a111.522,111.522,0,0,1-3.419,17.524,11.462,11.462,0,0,0-.7,2.616l-.021.065c-.082.208.044.142.377-.195a12.369,12.369,0,0,0-1.448-.265l-5.306-.973q-5.551-1.02-11.1-2.043a2.045,2.045,0,0,0-2.532,1.929,138.006,138.006,0,0,1-4.909,22.927,2.042,2.042,0,0,0,1.4,2.46,145.863,145.863,0,0,0,23.165,5.649c3.744.665,7.862,1.881,11.666,1.112a10.476,10.476,0,0,0,4.227-1.965c1.141-.867,3-2.441,3-4,0-2.574-4-2.578-4,0Z"/><path class="c" d="M207.543,152.343c-.411-.036-.821-.08-1.23-.135l.532.072a24.547,24.547,0,0,1-2.521-.476,2.091,2.091,0,0,0-1.541.2,2,2,0,0,0,.478,3.655,28.154,28.154,0,0,0,4.282.682,2.008,2.008,0,0,0,1.414-.586,2,2,0,0,0,0-2.828l-.405-.313a1.987,1.987,0,0,0-1.009-.273Z"/><path class="c" d="M203.243,169.128a52.3,52.3,0,0,1-7.775-2.13,2.01,2.01,0,0,0-2.46,1.4,2.052,2.052,0,0,0,1.4,2.46,52.441,52.441,0,0,0,7.774,2.131,2,2,0,0,0,1.064-3.858Z"/><path class="c" d="M279.6,247.071c1.028,15.228,2.417,30.43,3.908,45.618,1.574,16.035,3.287,32.056,5.044,48.072q1.315,11.986,2.651,23.97a2.06,2.06,0,0,0,2,2,2.014,2.014,0,0,0,2-2q-2.46-22.194-4.859-44.394c-1.714-16.125-3.353-32.26-4.78-48.413-.731-8.278-1.4-16.561-1.964-24.853-.173-2.554-4.174-2.573-4,0Z"/><path class="c" d="M297.3,369a24.92,24.92,0,0,0,7.768,1.454c3.731.3,7.482.382,11.224.383,3.989,0,8.01-.04,11.992-.311a5.174,5.174,0,0,0,4.926-3.283,8.357,8.357,0,0,0,.311-3.279c0-10-.445-20-.895-29.981-.6-13.225-1.326-26.443-2.088-39.659q-1.149-19.912-2.376-39.819c-.623-10.318-1.261-20.635-1.788-30.958q-.07-1.374-.136-2.747c-.123-2.563-4.124-2.578-4,0,.451,9.446,1.033,18.887,1.6,28.328q1.145,19.041,2.286,38.082c.772,13.153,1.517,26.308,2.158,39.468.518,10.625,1.006,21.257,1.188,31.894.033,1.942.054,3.885.05,5.828,0,.421,0,.843-.006,1.264a1.746,1.746,0,0,1,0,.324c.052-.188.04-.22-.1-.03-.274.376-.288.442-.731.538a17.219,17.219,0,0,1-2.739.125q-1.458.067-2.918.113c-6.975.217-14.329.462-21.207-.64-.513-.082-1.026-.175-1.532-.3-.242-.057-.48-.125-.72-.191-.124-.034-.758-.279-.247-.062a2.069,2.069,0,0,0-2.737.718A2.014,2.014,0,0,0,297.3,369Z"/><path class="c" d="M325.651,369.177c-.118,2.365.553,4.752.244,7.112a1.99,1.99,0,0,0,.585,1.414,2,2,0,0,0,2.829,0,2.363,2.363,0,0,0,.586-1.414c.309-2.36-.362-4.747-.244-7.112a2.014,2.014,0,0,0-2-2,2.045,2.045,0,0,0-2,2Z"/><path class="c" d="M301.465,368.376c-.3,2.181.087,4.389-.035,6.579a2.012,2.012,0,0,0,2,2,2.045,2.045,0,0,0,2-2c.058-1.039-.009-2.089-.038-3.128a19.646,19.646,0,0,1,0-2.891l-.072.532,0-.028a2.2,2.2,0,0,0-.2-1.541,2,2,0,0,0-2.736-.718,1.919,1.919,0,0,0-.919,1.195Z"/><path class="c" d="M288.579,367.363c0,1.3.268,2.592.353,3.889a2.121,2.121,0,0,0,.586,1.414,2,2,0,0,0,2.828,0,1.984,1.984,0,0,0,.586-1.414c-.085-1.3-.348-2.588-.353-3.889a2.075,2.075,0,0,0-.586-1.415,2,2,0,0,0-2.829,0,2.072,2.072,0,0,0-.585,1.415Z"/><path class="c" d="M274.676,399.027a92.694,92.694,0,0,1-9.217,2.691,31.552,31.552,0,0,1-10.587,1.211c-2.792-.239-6.142-1.157-7.78-3.616a12.178,12.178,0,0,1-.983-1.645c.142.314-.034-.133-.059-.246-.045-.206-.113-.5-.131-.653a8.745,8.745,0,0,1,.351-3.411,6.808,6.808,0,0,1,2.135-3.2c1.47-1.318,2.97-2.6,4.482-3.872,3.041-2.552,6.151-5.024,9.3-7.44,1.568-1.2,3.151-2.386,4.726-3.58a20.09,20.09,0,0,1,3.589-2.364c2.9-1.348,5.911.374,8.309,2.024a8.537,8.537,0,0,0,5.319,1.819,11.1,11.1,0,0,0,4.972-1.8c.748-.444,1.594-.838,2.3-1.34.3-.214.4-.071.2-.236.167.134.227.6.287.792a18.664,18.664,0,0,1,.812,5.155c.036,2.572,4.036,2.579,4,0a23.586,23.586,0,0,0-.775-5.573c-.453-1.741-1.171-3.557-3.034-4.171-3.641-1.2-6.131,3.805-9.71,3.125-1.7-.322-3.145-1.871-4.66-2.649a13.983,13.983,0,0,0-5.855-1.707c-3.671-.1-6.748,2.693-9.483,4.758-3.7,2.792-7.369,5.624-10.955,8.559q-2.643,2.163-5.221,4.408a14.618,14.618,0,0,0-3.794,4.236,11.5,11.5,0,0,0-.865,8.653,11.743,11.743,0,0,0,7.085,6.786c4.412,1.721,9.33,1.438,13.893.557a78.562,78.562,0,0,0,12.415-3.421c2.389-.893,1.355-4.761-1.064-3.857Z"/><path class="c" d="M298.6,380.658a10.73,10.73,0,0,1,5.584-3.084c2.3-.377,4.891.784,6.834,1.91,2.042,1.184,3.829,2.858,6.235,3.266a9.58,9.58,0,0,0,6.927-1.841c.918-.6,1.793-1.269,2.707-1.879.566-.378,1.261-1.143,1.828-.464a7.087,7.087,0,0,1,.915,3.025,21.819,21.819,0,0,1,.286,3.3c.145,4.557-.626,9.191-4.853,11.7a64.334,64.334,0,0,1-6.3,2.791,62.177,62.177,0,0,0-6.543,3.684,38.682,38.682,0,0,1-6.076,3.361,26.484,26.484,0,0,1-7.076,1.6,47.4,47.4,0,0,1-13.031-.544,11.022,11.022,0,0,1-6.165-3.413c-1.24-1.438-2.074-3.72-1.3-5.565.881-2.089,3.124-3.571,4.8-5q2.457-2.092,4.934-4.163c3.437-2.885,6.893-5.748,10.288-8.682,1.951-1.686-.888-4.5-2.828-2.828-3.395,2.934-6.851,5.8-10.288,8.682q-2.524,2.12-5.039,4.251a22.246,22.246,0,0,0-5.01,5.138c-3.177,5.306.642,11.349,5.461,13.942a19.733,19.733,0,0,0,7.43,1.947,59.086,59.086,0,0,0,7.638.4,31.164,31.164,0,0,0,15.655-4.089c2.416-1.434,4.773-2.972,7.243-4.311,2.342-1.27,4.894-2.037,7.266-3.233a13.538,13.538,0,0,0,5.807-5.363,17.806,17.806,0,0,0,1.965-7.782c.206-4.044.124-13.485-5.906-13.159-2.968.161-5.1,3.226-7.748,4.287-2.823,1.132-4.943-1.2-7.209-2.512-2.747-1.6-6.159-2.876-9.376-2.4a14.606,14.606,0,0,0-7.889,4.2c-1.825,1.82,1,4.649,2.828,2.828Z"/><path class="c" d="M144.252,179.471a19.57,19.57,0,0,0,12.547,5.437,65.228,65.228,0,0,0,15.668-1.436c9.659-1.927,24.8-5.1,24.543-17.785a34.346,34.346,0,0,0-1.369-7.8c-.738-2.865-1.562-5.71-2.5-8.516-1.486-4.445-3.146-10-7.063-12.926a13.076,13.076,0,0,0-8-2.224c-2.719-.007-5.44.038-8.153.215a62.139,62.139,0,0,0-13.649,2.354c-2.727.809-5.457,1.644-7.71,3.444a11.94,11.94,0,0,0-4.08,5.933,51.029,51.029,0,0,0-1.463,13.5c-.008,2.574,3.992,2.577,4,0a58.93,58.93,0,0,1,.9-10.593,8.392,8.392,0,0,1,1.678-4.263,10.456,10.456,0,0,1,5.186-3.355,56.638,56.638,0,0,1,11.519-2.7c2.175-.255,4.362-.4,6.55-.469a39.258,39.258,0,0,1,7.511.039,7.3,7.3,0,0,1,5.209,3.424,29.71,29.71,0,0,1,2.542,5.393,104.508,104.508,0,0,1,4.432,14.945,13.909,13.909,0,0,1,.214,6.229,9.833,9.833,0,0,1-3.715,5.18c-4.063,3.167-9.045,4.237-13.961,5.313a75.876,75.876,0,0,1-16.134,2.138,16.932,16.932,0,0,1-6.413-.962,15.894,15.894,0,0,1-5.459-3.349c-1.818-1.827-4.647,1-2.828,2.828Z"/><path class="c" d="M151.172,151.814a11.8,11.8,0,0,0,7.653,2.792,51.474,51.474,0,0,0,9.9-.42,39.17,39.17,0,0,0,8.915-2.156c2.439-.962,4.834-2.307,5.865-4.838a2.013,2.013,0,0,0-1.4-2.46,2.049,2.049,0,0,0-2.46,1.4c-.23.564-1.142,1.042-1.647,1.333a12.8,12.8,0,0,1-2.459,1.082,43.491,43.491,0,0,1-7.838,1.777,47.8,47.8,0,0,1-7.7.334c-2.08-.067-4.386-.177-6-1.669-1.888-1.744-4.724,1.077-2.828,2.828Z"/><path class="d" d="M88.357,211.23c8.928,1.082,17.265,5.1,22.652,12.478,9.593,13.138,7.2,34.332-5.18,44.888-13.316,11.357-36.21,9.262-47.128-4.408s-8.794-34.964,4.908-45.665C70.366,213.246,79.9,210.2,88.357,211.23Z"/><path class="c" d="M39.049,332.616c6.632,2.178,13.713,3.049,20.622,3.867q6.051.719,12.138,1.035a197.428,197.428,0,0,0,35.136-1.334c7.2-.921,14.753-1.626,21.556-4.292a2.06,2.06,0,0,0,1.4-2.46,2.013,2.013,0,0,0-2.46-1.4c-6.049,2.37-12.665,3.1-19.06,3.961q-9.418,1.272-18.927,1.63a189.427,189.427,0,0,1-27.457-.881c-7.325-.781-14.86-1.681-21.882-3.986-2.451-.805-3.5,3.056-1.063,3.857Z"/><path class="c" d="M124.306,313.866a38.227,38.227,0,0,1,11.286,3.34,7.97,7.97,0,0,1,3.772,3.4c1.12,2.106.932,4.238.814,6.541A261.3,261.3,0,0,1,136.2,361.1a275.5,275.5,0,0,1-8.411,33.583,42.36,42.36,0,0,1-4.8,11.008,18.492,18.492,0,0,1-10.007,7.407c-5.175,1.59-10.7,1.49-16.059,1.463-2.731-.014-5.462-.015-8.193-.017-6.487,0-12.975.025-19.462.024-5.172,0-10.508-.113-15.4-1.975a18.59,18.59,0,0,1-9.164-7.885c-2.182-3.585-3.421-7.6-4.66-11.586q-2.586-8.3-4.648-16.75a265.9,265.9,0,0,1-6.021-34.041q-.942-8.619-1.32-17.287a8.169,8.169,0,0,1,1.754-5.694,12.8,12.8,0,0,1,6.141-3.479,40.02,40.02,0,0,1,7.113-1.673,2.061,2.061,0,0,0,2-2,2.013,2.013,0,0,0-2-2,45.908,45.908,0,0,0-7.767,1.693,19.585,19.585,0,0,0-7.414,3.739,11.565,11.565,0,0,0-3.48,5.85c-.743,2.838-.248,5.952-.064,8.851a271.15,271.15,0,0,0,4.822,36.423q1.83,9.072,4.272,18.007a164.845,164.845,0,0,0,4.91,15.852,29.9,29.9,0,0,0,6.881,11.131,24.517,24.517,0,0,0,13.555,6.2,93.462,93.462,0,0,0,14.066.612q5.04-.015,10.08-.012,5.493,0,10.988.008c4.253.009,8.522.131,12.763-.261,5.467-.5,10.769-1.909,15.111-5.4a26.427,26.427,0,0,0,7.445-10.436,126.053,126.053,0,0,0,4.927-15.053q2.529-8.906,4.458-17.966a270.84,270.84,0,0,0,5.17-36.122c.223-2.978.4-5.962.514-8.947a11.565,11.565,0,0,0-2.009-6.638c-2.482-3.616-6.8-5.083-10.818-6.305a39.478,39.478,0,0,0-6.108-1.411,2.069,2.069,0,0,0-2.46,1.4,2.014,2.014,0,0,0,1.4,2.46Z"/><path class="e" d="M76.029,302.192a7.468,7.468,0,0,0,4.152,1.738,37.862,37.862,0,0,0,6.634.259c2.03-.049,4.692-.259,5.967-1.4a23.989,23.989,0,0,1,23.172-8.688c2.593.517,4.11,1.4,4.2,4.153a18.984,18.984,0,0,1-1.12,6.946,23.823,23.823,0,0,1-8.4,11.128c-8.036,5.863-18.848,7.024-28.461,6.286a44.948,44.948,0,0,1-19.312-3.03,24.968,24.968,0,0,1-11.284-8.927c-2.651-3.992-6.248-15,.8-16.47a25.066,25.066,0,0,1,23.652,8.04"/><path class="c" d="M91.379,227.785c-2.585,2.646-4.81,5.626-7.282,8.374a2,2,0,0,0,2.829,2.829c2.472-2.749,4.7-5.729,7.282-8.375a2,2,0,0,0-2.829-2.828Z"/><path class="c" d="M75.774,230.271q1.038,1.2,2.015,2.455c.052.067.3.385.046.058l.2.263q.224.294.444.589.453.6.9,1.217c.992,1.366,1.947,2.757,2.922,4.134a2.045,2.045,0,0,0,2.737.718,2.025,2.025,0,0,0,.717-2.737c-2.3-3.243-4.55-6.513-7.151-9.525a2.01,2.01,0,0,0-2.829,0,2.051,2.051,0,0,0,0,2.828Z"/><path class="c" d="M76.763,242.822c2.965-.153,5.946-.115,8.914-.088,2.654.025,5.344-.011,7.99.237a2.014,2.014,0,0,0,2-2,2.043,2.043,0,0,0-2-2c-2.646-.248-5.336-.212-7.99-.237-2.968-.027-5.949-.065-8.914.088a2.043,2.043,0,0,0-2,2,2.019,2.019,0,0,0,2,2Z"/><path class="c" d="M83.514,237.364c-1.124,6.683-1.217,13.6-1.4,20.364-.07,2.575,3.93,2.574,4,0q.132-4.832.4-9.66c.1-1.818.22-3.634.377-5.448.069-.807.146-1.614.238-2.42.1-.857.1-.932.245-1.772a2.059,2.059,0,0,0-1.4-2.46,2.016,2.016,0,0,0-2.461,1.4Z"/><path class="c" d="M88.357,213.23a31.408,31.408,0,0,1,18.489,8.662,28.683,28.683,0,0,1,7.773,16.438c1.581,11.9-3.165,25.084-13.779,31.38-10.3,6.112-24.15,5.5-34.141-.968C56.338,262.04,51.846,248.853,54.458,237a29.674,29.674,0,0,1,8.871-15.637,33.17,33.17,0,0,1,19.536-8.258,29.728,29.728,0,0,1,5.492.121,2.012,2.012,0,0,0,2-2,2.047,2.047,0,0,0-2-2,36.407,36.407,0,0,0-23.352,5.857,33.152,33.152,0,0,0-13.038,16.252c-4.843,12.816-1.71,28.6,8.689,37.8,10.088,8.93,25.549,11.271,37.949,6.121a31.487,31.487,0,0,0,15.146-13.088,38.175,38.175,0,0,0,5.148-19.759,34.464,34.464,0,0,0-5.876-19.313,33.262,33.262,0,0,0-18.867-12.795,44.234,44.234,0,0,0-5.8-1.076,2.01,2.01,0,0,0-2,2A2.05,2.05,0,0,0,88.357,213.23Z"/><path class="c" d="M60.766,255.018C63.7,263.839,73.384,269.808,82.5,269.6c2.57-.057,2.58-4.058,0-4-7.277.163-15.5-4.5-17.88-11.65-.807-2.431-4.671-1.389-3.857,1.064Z"/><path class="c" d="M105.654,227.7a16.551,16.551,0,0,0-4.865-5.692,17.618,17.618,0,0,0-6.67-3.312,2,2,0,1,0-1.064,3.857,12.991,12.991,0,0,1,1.486.44c.12.043.237.091.357.134.358.13-.2-.1.021,0,.262.119.524.236.781.365.478.24.944.5,1.4.785.23.144.456.292.679.446.134.093.268.187.4.283.042.03.405.3.19.138s.182.148.182.148c.105.086.21.173.313.262q.31.264.607.543a16.417,16.417,0,0,1,1.172,1.217c.087.1.172.2.256.3.132.161.189.242.028.027.155.208.308.417.452.632a12.177,12.177,0,0,1,.826,1.437,2.011,2.011,0,0,0,2.736.717,2.051,2.051,0,0,0,.717-2.736Z"/><path class="c" d="M88.484,324.8c11.537-.279,23.881-3.978,30.246-14.346a23,23,0,0,0,3.157-8.376c.405-2.576.725-5.819-1.216-7.892-1.641-1.753-4.291-2.12-6.554-2.369a25.177,25.177,0,0,0-7.919.443,25.749,25.749,0,0,0-14.83,9.116,2.065,2.065,0,0,0,0,2.829,2.014,2.014,0,0,0,2.828,0,22.2,22.2,0,0,1,16.956-8.523,14.9,14.9,0,0,1,5.852.763c1.673.706,1.237,3.029,1.026,4.57a19.148,19.148,0,0,1-2.551,7.083,23.858,23.858,0,0,1-10.5,9.259A40.7,40.7,0,0,1,88.484,320.8c-2.57.062-2.58,4.063,0,4Z"/><path class="c" d="M79.494,320.683c-10.074-.045-22.568-3.142-27.322-13.07-1.257-2.625-2.435-6.376-1.726-9.16a2.844,2.844,0,0,1,2.466-2.342,20.887,20.887,0,0,1,7.273-.233,23.331,23.331,0,0,1,14.434,7.759c1.7,1.943,4.515-.9,2.829-2.828A26.882,26.882,0,0,0,62.2,292.176a27.3,27.3,0,0,0-8.873-.18c-2.3.333-4.392,1.1-5.739,3.109-2.346,3.5-1.239,8.561.149,12.213a23.86,23.86,0,0,0,9.574,11.6c6.485,4.211,14.559,5.732,22.188,5.766,2.574.012,2.578-3.988,0-4Z"/><path class="c" d="M83.068,277.969q-.256,11.156-.632,22.309-.111,3.328-.231,6.658a14.331,14.331,0,0,0-.007,2.9c.331,1.908,3.528,1.91,3.857,0v0a2.06,2.06,0,0,0-1.4-2.461,2.018,2.018,0,0,0-2.46,1.4v0h3.857c.181,1.047.081.142.093-.2.021-.639.045-1.277.067-1.915q.12-3.354.232-6.709.364-10.989.621-21.981c.059-2.575-3.941-2.574-4,0Z"/><path class="c" d="M90.055,178.18c-2.971,1.592-5.125,4.576-6.717,7.473a26.31,26.31,0,0,0-2.922,9.664,2.012,2.012,0,0,0,2,2,2.049,2.049,0,0,0,2-2,21.027,21.027,0,0,1,2.376-7.645c1.287-2.342,2.89-4.757,5.282-6.038a2,2,0,0,0-2.019-3.454Z"/><path class="c" d="M96.386,183.515a21.536,21.536,0,0,0-2.076,13.831,2.01,2.01,0,0,0,2.461,1.4,2.056,2.056,0,0,0,1.4-2.46A9.682,9.682,0,0,1,98,195.044q-.066-.771-.069-1.546t.055-1.532c.019-.252.044-.5.072-.757.018-.142.017-.143,0,0q.03-.213.066-.426a17.058,17.058,0,0,1,1.717-5.244,2,2,0,0,0-3.454-2.019Z"/><path class="c" d="M151.069,281.883l.158.125a2.084,2.084,0,0,0,2.828,0,3.723,3.723,0,0,0,.964-2.169c.207-.773.436-1.54.695-2.3a13.024,13.024,0,0,1,1.889-3.9,9.112,9.112,0,0,1,3.458-2.369,14.989,14.989,0,0,1,2.508-.849c.9-.224,1.871-.213,2.51-.974a2.058,2.058,0,0,0,0-2.828,3.654,3.654,0,0,0-2.349-.9,16.8,16.8,0,0,1-2.292-.614,8.682,8.682,0,0,1-3.423-2.206,10.3,10.3,0,0,1-2.353-4.054c-.455-1.468-.306-3.815-1.406-4.914a2.018,2.018,0,0,0-2.424-.312c-1.456,1.089-1.646,3.5-2.272,5.149a14.336,14.336,0,0,1-1.959,3.851,7.184,7.184,0,0,1-3.223,2.216,20.57,20.57,0,0,1-2.4.678c-1.009.233-2.321.231-3.017,1.1a2.054,2.054,0,0,0,0,2.828c.753.781,1.675.705,2.661.9a12.007,12.007,0,0,1,2.357.693,11.151,11.151,0,0,1,3.929,2.716c1.647,1.9,2.072,4.881,2.648,7.251.607,2.5,4.465,1.441,3.857-1.064-.733-3.02-1.423-6.386-3.5-8.811a15.714,15.714,0,0,0-10.39-4.942l1.414.585-.149-.154v2.828l.136-.168-.883.514c3.388-.654,6.9-1.524,9.283-4.215,2.273-2.571,3.492-6.285,4.279-9.567l-.919,1.2.167-.126-2.423-.312.15.15-.586-1.414c.419,3.748,1.447,7.266,4.066,10.1a14.815,14.815,0,0,0,8.931,4.209l-.882-.514.144.16v-2.828l-.135.161.882-.515c-3.312.531-7.177,2.028-9.351,4.7-2.046,2.519-3.03,5.854-3.778,8.961l.515-.882-.157.126h2.828l-.157-.125a2.064,2.064,0,0,0-2.829,0A2.014,2.014,0,0,0,151.069,281.883Z"/><path class="c" d="M8.994,364.564l.11.087a2.084,2.084,0,0,0,2.828,0c.842-.676.972-2.386,1.311-3.377a8.431,8.431,0,0,1,1.253-2.567c-.164.208.226-.218.224-.216a3.661,3.661,0,0,1,.455-.371,8.868,8.868,0,0,1,1.511-.844,9.865,9.865,0,0,1,1.6-.529c.734-.184,1.485-.2,2.015-.835a2.058,2.058,0,0,0,0-2.828c-.8-.9-2.406-.818-3.5-1.21a5.612,5.612,0,0,1-2.114-1.38,6.476,6.476,0,0,1-1.481-2.553c-.36-1.162-.256-2.81-1.135-3.689a2.02,2.02,0,0,0-2.424-.313A3.309,3.309,0,0,0,8.4,346.025q-.267.944-.617,1.862a13.813,13.813,0,0,1-.619,1.4c-.1.2-.21.4-.325.6-.038.063-.44.631-.263.414a4.389,4.389,0,0,1-1.975,1.385,15.645,15.645,0,0,1-1.671.472c-.821.19-1.8.212-2.369.92a2.056,2.056,0,0,0,0,2.829c.853.883,2.556.763,3.617,1.2a7.611,7.611,0,0,1,2.611,1.8q.132.151-.011-.03c.079.11.153.224.223.341.13.215.245.439.353.666.088.187.315.809.442,1.212.269.852.469,1.722.68,2.59.607,2.5,4.465,1.441,3.857-1.064-.537-2.209-1.062-4.637-2.592-6.4A11.613,11.613,0,0,0,2.083,352.6l1.414.586-.1-.108v2.829l.094-.118-.883.515c2.464-.476,5-1.142,6.73-3.091a16.212,16.212,0,0,0,3.135-6.927l-.919,1.195.116-.087-2.424-.312.105.1-.586-1.414a12.534,12.534,0,0,0,3.008,7.458,10.809,10.809,0,0,0,6.485,3.086l-.882-.514.1.111v-2.828l-.094.112.882-.514a11.322,11.322,0,0,0-6.777,3.43A16.053,16.053,0,0,0,8.7,362.618l.514-.883-.109.088h2.828l-.109-.087a2.064,2.064,0,0,0-2.829,0A2.014,2.014,0,0,0,8.994,364.564Z"/><path class="c" d="M23.96,228.546l.158.125a2.085,2.085,0,0,0,2.828,0,3.732,3.732,0,0,0,.964-2.168c.207-.773.435-1.54.694-2.3a13.022,13.022,0,0,1,1.888-3.895,9.11,9.11,0,0,1,3.457-2.368,15.055,15.055,0,0,1,2.506-.848c.894-.223,1.87-.213,2.509-.973a2.06,2.06,0,0,0,0-2.829,3.653,3.653,0,0,0-2.348-.9,16.786,16.786,0,0,1-2.291-.613,8.683,8.683,0,0,1-3.421-2.2,10.3,10.3,0,0,1-2.352-4.051c-.454-1.468-.306-3.814-1.405-4.913a2.02,2.02,0,0,0-2.424-.312c-1.456,1.089-1.646,3.5-2.272,5.148a14.348,14.348,0,0,1-1.957,3.849,7.193,7.193,0,0,1-3.222,2.214,20.538,20.538,0,0,1-2.4.678c-1.01.233-2.321.231-3.017,1.1a2.055,2.055,0,0,0,0,2.829c.753.78,1.675.7,2.66.9a12,12,0,0,1,2.357.691,11.149,11.149,0,0,1,3.926,2.716c1.647,1.9,2.072,4.878,2.647,7.246.607,2.5,4.465,1.442,3.857-1.063-.733-3.019-1.423-6.384-3.5-8.807a15.708,15.708,0,0,0-10.386-4.941l1.414.586-.149-.155v2.829l.136-.169-.883.514c3.387-.653,6.9-1.523,9.279-4.213,2.273-2.569,3.491-6.282,4.278-9.563l-.919,1.2.167-.125-2.424-.313.151.15-.586-1.414c.418,3.746,1.446,7.263,4.064,10.093a14.8,14.8,0,0,0,8.927,4.207l-.882-.514.144.161v-2.829l-.135.161.882-.514c-3.311.53-7.174,2.027-9.347,4.7-2.045,2.517-3.029,5.851-3.776,8.957l.514-.883-.156.126h2.828l-.157-.125a2.065,2.065,0,0,0-2.829,0A2.015,2.015,0,0,0,23.96,228.546Z"/><path class="a" d="M250.413,43.791c3.822-3.155,8.143-6.27,11.518-7.792.623-.281,1.4.14,1.619,1.092.444,1.925-.454,4.63,1.017,4.139,2.551-.851,10.274-5.644,16.218-7.775l5.758,2.375a16.457,16.457,0,0,1,2.555,1.747A20.343,20.343,0,0,1,292.4,41.3c1.863,2.623,4.2,6.925,7.03,13.849l1.958-1.23a6.154,6.154,0,0,1,7.624-.337,8.5,8.5,0,0,1,3.271,7.242,14.041,14.041,0,0,1-2.941,7.613,20.256,20.256,0,0,1-8.5,6.512,39.345,39.345,0,0,1-7.8,9.769,31.777,31.777,0,0,1-12.284,7.436,29.321,29.321,0,0,1-16.316.326,28.943,28.943,0,0,1-8.161-3.541,27.977,27.977,0,0,1-7.415-7.274,37.995,37.995,0,0,1-5.674-11.245,52.6,52.6,0,0,1-2.342-11.267c-.244-2.107-.346-3.9-.392-5.216,0,0,0-.159-.016-.426l4.147-4.533C246.18,47.434,248.214,45.606,250.413,43.791Z"/><path class="f" d="M312.428,35.472c-.952-7.409-3.5-14.882-8.414-18.9L299.5,12.552c-1.6-1.6-7.364-8.163-20.327-9.363-15.366-1.422-26.828,3.47-31.744,8.9l-.4,5.176c-6.625,5.969-10.316,16.789-8.373,31.721.062.949.138,1.886.227,2.805.1,1.038.219,2.054.352,3.039.116-.129,5.348-5.846,5.348-5.846C248.949,44.748,256.615,38.4,261.931,36c.623-.281,1.4.14,1.619,1.092.444,1.925-.454,4.63,1.017,4.139,2.551-.851,10.274-5.644,16.218-7.775l5.758,2.375a16.457,16.457,0,0,1,2.555,1.747A20.343,20.343,0,0,1,292.4,41.3c1.863,2.623,4.2,6.925,7.03,13.849l1.958-1.23a6.154,6.154,0,0,1,7.624-.337,7.089,7.089,0,0,1,1.655,1.656c1.352-3.3,2.2-9.671,2.206-12.577A55.385,55.385,0,0,0,312.428,35.472Z"/><path class="c" d="M302.806,55.335a4.191,4.191,0,0,1,5.3.054,6.876,6.876,0,0,1,2.105,6.332c-.829,5.451-5.566,9.4-10.338,11.488a2.015,2.015,0,0,0-.717,2.737,2.05,2.05,0,0,0,2.736.717c6.373-2.788,12.624-9.03,12.4-16.475a10.264,10.264,0,0,0-4.764-8.649,8.189,8.189,0,0,0-9.548.968c-1.9,1.746.935,4.569,2.829,2.828Z"/><path class="c" d="M237.884,54.717c1.166,2.5,1.149,5.629,1.51,8.326a45.077,45.077,0,0,0,2.2,8.878c2.125,6.1,5.572,12.058,10.5,16.34,9.926,8.632,25.251,9.47,36.328,2.57a42.683,42.683,0,0,0,14.169-14.9c1.284-2.236-2.171-4.253-3.454-2.019a39.278,39.278,0,0,1-11,12.3,27.588,27.588,0,0,1-17.147,5.246,26.535,26.535,0,0,1-15.432-5.5A33.322,33.322,0,0,1,245.54,71.119a42.835,42.835,0,0,1-2.251-8.888c-.4-3.2-.567-6.566-1.952-9.532a2.016,2.016,0,0,0-2.736-.718,2.045,2.045,0,0,0-.717,2.736Z"/><path class="c" d="M312.9,54.947c2.222-6.731,2.343-14.032,1.317-20.984-1-6.774-3.358-14.26-8.794-18.8-1.963-1.64-4.807,1.175-2.829,2.829,4.94,4.127,6.87,10.9,7.765,17.038a41.5,41.5,0,0,1-1.316,18.856c-.809,2.451,3.052,3.5,3.857,1.064Z"/><path class="c" d="M236.66,48.982c.121,1.829.294,3.654.53,5.471a2.2,2.2,0,0,0,.586,1.415,2,2,0,0,0,2.828,0,1.919,1.919,0,0,0,.586-1.415c-.236-1.817-.409-3.642-.53-5.471a2.123,2.123,0,0,0-.585-1.414,2,2,0,0,0-3.415,1.414Z"/><path class="c" d="M245.619,15.847c-9.04,8.248-10.39,21.729-8.938,33.193a2.065,2.065,0,0,0,2,2,2.012,2.012,0,0,0,2-2c-1.321-10.43-.514-22.809,7.766-30.365,1.906-1.738-.929-4.561-2.828-2.828Z"/><path class="c" d="M300.916,11.138A49.9,49.9,0,0,0,296.525,6.9a30.2,30.2,0,0,0-10.351-5.341c-9.668-2.818-20.888-1.68-30.071,2.287a29.482,29.482,0,0,0-10.087,6.823c-1.739,1.893,1.083,4.729,2.828,2.828,4.971-5.413,12.771-8.1,19.883-9.023,8.485-1.1,17.663-.163,24.7,5.055a43.391,43.391,0,0,1,4.657,4.436c1.812,1.834,4.64-1,2.829-2.829Z"/><path class="c" d="M246,50.394a97.423,97.423,0,0,1,8.113-7.021c1.453-1.124,2.947-2.2,4.487-3.2.689-.448,1.388-.882,2.1-1.289.377-.216.759-.426,1.145-.625.184-.095.368-.188.554-.278q.654-.275-.241-.02l-.882-.514c.509.4.257,1.843.3,2.51a3.427,3.427,0,0,0,1.373,2.972c1.647.984,3.729-.394,5.21-1.147,4.341-2.208,8.566-4.723,13.156-6.4,2.4-.875,1.363-4.742-1.064-3.857a80.412,80.412,0,0,0-9.695,4.483c-1.388.727-2.767,1.471-4.161,2.186-.5.258-1.01.514-1.524.755-.1.048-.626.344-.375.177-.473.314-.973-.106.318.6.983.538.78.678.751-.056-.015-.364-.012-.728-.028-1.092a7.7,7.7,0,0,0-.452-2.587c-.831-2.023-2.728-2.4-4.569-1.532a47.55,47.55,0,0,0-8.47,5.494,103.385,103.385,0,0,0-8.875,7.612c-1.855,1.792.975,4.618,2.828,2.828Z"/><path class="c" d="M285.533,37.557a18.345,18.345,0,0,1,6.549,6.918A82.12,82.12,0,0,1,297.5,55.683a2.066,2.066,0,0,0,2.461,1.4,2.012,2.012,0,0,0,1.4-2.46,87.555,87.555,0,0,0-5.931-12.339,22.182,22.182,0,0,0-7.878-8.178c-2.247-1.262-4.266,2.192-2.019,3.454Z"/><path class="c" d="M123.136,166.271c6.831.525,13.656,1.115,20.486,1.643a2.018,2.018,0,0,0,2-2,2.039,2.039,0,0,0-2-2c-6.83-.528-13.655-1.118-20.486-1.643a2.017,2.017,0,0,0-2,2,2.04,2.04,0,0,0,2,2Z"/><path class="c" d="M117.937,173.775a172.31,172.31,0,0,1,26.162,5.487c2.482.7,3.542-3.161,1.063-3.857a179.049,179.049,0,0,0-27.225-5.63,2.012,2.012,0,0,0-2,2,2.048,2.048,0,0,0,2,2Z"/><path class="c" d="M124.614,166.27a4.619,4.619,0,0,0-.673-5.033,6.223,6.223,0,0,0-5.069-2,28.138,28.138,0,0,0-11.112,3.088,30.02,30.02,0,0,0-4.776,2.882,10.4,10.4,0,0,0-3.828,4.3,4.983,4.983,0,0,0,1.038,5.35,7.064,7.064,0,0,0,5.089,1.956c4.579.085,9.332-1.427,13.433-3.347a2.017,2.017,0,0,0,.717-2.737,2.045,2.045,0,0,0-2.736-.717,29.144,29.144,0,0,1-10.488,2.779c-1,.058-2.89.141-3.381-1.033s1.4-2.513,2.175-3.093a28.288,28.288,0,0,1,9.164-4.537,18.5,18.5,0,0,1,4.884-.892,2.661,2.661,0,0,1,1.652.379c.088.069.5.536.457.636a2.063,2.063,0,0,0,.718,2.737,2.016,2.016,0,0,0,2.736-.718Z"/><path class="c" d="M191.855,147.732c.186-.038.373-.075.561-.1-.352.052.315-.026.314-.026a10.014,10.014,0,0,1,1.261-.019,3.49,3.49,0,0,1,.948.15c.059.016.581.224.342.109.054.026.511.331.293.158-.2-.156.078.1.115.13.293.255-.148-.27.057.071.186.31.378.612.544.935a15.437,15.437,0,0,1,.834,1.929c.574,1.514,1.079,3.054,1.6,4.586a9.343,9.343,0,0,1-.36,6.285A2,2,0,1,0,202.222,163a12.918,12.918,0,0,0,.361-8.412c-.618-1.822-1.21-3.661-1.938-5.443-.7-1.722-1.476-3.661-3.158-4.656-1.973-1.165-4.53-1.055-6.7-.615a2,2,0,1,0,1.064,3.857Z"/><path class="c" d="M264.772,65.865a17.376,17.376,0,0,0-.622,1.822c-.333,1.131-.681,2.5.262,3.455a3.159,3.159,0,0,0,.69.5,3.33,3.33,0,0,0,.813.319,5.577,5.577,0,0,0,1.14.083,2.056,2.056,0,0,0,1.414-.586,2,2,0,0,0,0-2.829,2.091,2.091,0,0,0-1.414-.585,4.633,4.633,0,0,1-.565,0l.532.071a1.352,1.352,0,0,1-.278-.078l.478.2a1.879,1.879,0,0,1-.373-.223l.405.312-.013-.013.312.405a.234.234,0,0,1-.015-.027l.2.477a.294.294,0,0,1-.016-.065l.071.531a1.249,1.249,0,0,1,.011-.273l-.071.532a9.688,9.688,0,0,1,.422-1.63c.144-.448.29-.9.473-1.335a1.512,1.512,0,0,0,.035-.8,1.486,1.486,0,0,0-.237-.744,2,2,0,0,0-2.736-.718l-.405.313a2,2,0,0,0-.515.883Z"/><path class="c" d="M252.017,58.306c-.492,1.543-.272,5.118,2.539,5.476,3.726.049,4.019-4.262,2.809-6.316C256.375,55.785,253.372,55.036,252.017,58.306Z"/><path class="c" d="M283.987,58.437c.465,1.631.063,5.352-3.014,5.606-4.058-.109-4.18-4.621-2.77-6.712C279.357,55.619,282.661,54.966,283.987,58.437Z"/><path class="c" d="M263.372,81.578a13.062,13.062,0,0,0,5.39.5,15.344,15.344,0,0,0,5.84-1.662,2.018,2.018,0,0,0,.718-2.736,2.044,2.044,0,0,0-2.737-.718c-.159.086-.319.169-.482.247-.023.011-.433.2-.141.068.261-.12-.033.011-.087.032-.381.147-.77.274-1.163.383s-.814.2-1.226.28q-.147.027-.294.051c-.055.009-.39.069-.1.019s-.046.005-.1.012c-.123.014-.247.026-.37.037a14.128,14.128,0,0,1-2.381.019c-.114-.009-.228-.021-.343-.032-.275-.025.027,0,.13.021-.167-.042-.347-.055-.517-.088a8.58,8.58,0,0,1-1.068-.286,2.014,2.014,0,0,0-2.46,1.4,2.047,2.047,0,0,0,1.4,2.46Z"/></svg>